<svg id="Capa_1" enable-background="new 0 0 511.486 511.486" height="512" viewBox="0 0 511.486 511.486" width="512" xmlns="http://www.w3.org/2000/svg"><g><g><path d="m312.114 469.166-41.074 29.842c-9.121 6.62-21.47 6.62-30.59 0l-41.074-29.842c-2.788-2.029-5.104-4.561-6.866-7.409-2.849-4.632-4.222-10.115-3.781-15.7l2.46-31.174 4.898-61.898 3.833-48.544 4.888-61.898 3.833-48.555 3.085-38.983c1.066-13.538 12.359-23.97 25.938-23.97h36.165c13.568 0 24.872 10.433 25.938 23.97l.728 9.141 3.638 46.126 4.642 58.803 3.648 46.106 4.642 58.803 3.648 46.116 2.05 25.958c.705 9.027-3.322 17.779-10.649 23.108z" fill="#da4a54"/><path d="m255.739 503.968c-5.36 0-10.73-1.65-15.29-4.96l-41.074-29.842c-2.787-2.029-5.103-4.561-6.866-7.409-2.849-4.632-4.222-10.115-3.781-15.7l2.459-31.174 4.899-61.898 3.833-48.544 4.888-61.898 3.833-48.555 3.085-38.983c1.066-13.538 12.359-23.97 25.938-23.97h6.343c-8.813 0-16.151 10.433-16.837 23.97l-2.009 38.983-2.48 48.555-3.177 61.898-2.49 48.544-3.177 61.898-1.599 31.174c-.287 5.585.605 11.068 2.449 15.7 1.148 2.849 2.654 5.38 4.458 7.409l26.675 29.842c2.962 3.31 6.436 4.96 9.92 4.96z" fill="#c32430"/><g fill="#f9f6f9"><path d="m304.13 210.271-99.323 32.271 3.833-48.554 91.852-29.843z"/><path d="m312.421 315.18-116.335 37.805 3.833-48.545 108.854-35.366z"/><path d="m320.712 420.098-128.202 41.659c-2.849-4.632-4.222-10.115-3.781-15.7l2.46-31.174 125.876-40.9z"/></g><g fill="#dfeaef"><path d="m225.436 188.525-.276 5.463-2.183 42.652-18.17 5.902 3.833-48.554z"/><path d="m219.831 297.974-.328 6.466-2.132 41.627-21.285 6.918 3.833-48.545z"/><path d="m212.237 446.057c-.164 3.105.041 6.18.584 9.1l-20.311 6.6c-2.849-4.632-4.222-10.115-3.782-15.7l2.46-31.174 23.027-7.481-.379 7.481z"/></g><path d="m318.416 67.702c-.103.389-.225.789-.349 1.178l-13.947 42.908-.41 1.26c-3.484 10.719-13.476 17.985-24.749 17.985h-46.434c-11.283 0-21.275-7.266-24.759-17.985l-14.346-44.168c-.974-2.982-1.373-6.046-1.261-9.059.307-7.809 4.13-15.249 10.719-20.035l21.592-15.69 15.977-11.611c9.121-6.62 21.469-6.62 30.59 0l37.569 27.301c8.783 6.385 12.657 17.524 9.808 27.916z" fill="#da4a54"/><path d="m255.75 7.516c-3.423 0-6.846 1.66-9.746 4.97l-10.176 11.611-13.742 15.69c-4.202 4.786-6.63 12.226-6.825 20.035-.072 3.013.174 6.077.799 9.059l9.131 44.169c2.224 10.719 8.588 17.985 15.771 17.985h-8.434c-11.283 0-21.275-7.266-24.759-17.985l-14.347-44.17c-.974-2.982-1.373-6.046-1.26-9.059.307-7.809 4.13-15.249 10.719-20.035l21.593-15.69 15.976-11.611c4.56-3.309 9.93-4.969 15.3-4.969z" fill="#c32430"/><path d="m318.416 67.702c-.103.389-.225.789-.349 1.178l-13.947 42.908-111.959-51.967c.307-7.809 4.13-15.249 10.719-20.035l21.592-15.69z" fill="#f9f6f9"/><path d="m232.546 27.844-8.073-3.747-21.592 15.69c-6.589 4.786-10.412 12.226-10.719 20.035l24.363 11.309-.465-2.249c-.625-2.982-.871-6.046-.799-9.059.195-7.809 2.623-15.249 6.825-20.035z" fill="#dfeaef"/></g><path d="m330.24 445.464-22.27-281.917-.73-9.133c-.657-8.327-4.399-15.781-10.033-21.282 6.292-4.08 11.197-10.243 13.641-17.764l14.351-44.167c4.503-13.856-.392-28.919-12.179-37.482l-37.572-27.296c-11.785-8.563-27.624-8.563-39.409 0l-37.572 27.297c-11.786 8.563-16.68 23.625-12.178 37.481l14.351 44.168c2.444 7.521 7.348 13.684 13.641 17.764-5.633 5.5-9.375 12.954-10.033 21.281l-23 291.053c-.561 7.13 1.126 14.122 4.885 20.229 2.314 3.748 5.285 6.956 8.834 9.538l41.082 29.841c5.889 4.275 12.791 6.412 19.695 6.412 6.905 0 13.811-2.138 19.708-6.413l12.1-8.79c3.352-2.435 4.095-7.125 1.661-10.476-2.436-3.352-7.126-4.094-10.476-1.661l-12.096 8.786c-6.519 4.727-15.272 4.728-21.78.004l-38.337-27.848 107.46-34.918 1.301 16.464c.503 6.491-2.331 12.646-7.579 16.461l-4.75 3.45c-3.352 2.435-4.095 7.125-1.661 10.476 2.436 3.352 7.125 4.095 10.476 1.661l4.754-3.453c9.498-6.906 14.625-18.03 13.715-29.766zm-56.416-306.93c9.598 0 17.707 7.494 18.463 17.067l.256 3.238-75.538 24.544 2.196-27.789c.756-9.567 8.866-17.061 18.463-17.061h36.16zm-58.099 61.037 78.033-25.355 2.43 30.75-83.021 26.974zm-3.837 48.556 85.515-27.784 3.432 43.424-92.559 30.072zm-4.891 61.899 95.053-30.882 2.429 30.73-100.039 32.51zm-3.836 48.546 102.533-33.32 3.432 43.424-109.577 35.604zm41.694-340.015c3.256-2.366 7.072-3.548 10.888-3.548s7.631 1.183 10.888 3.549l37.571 27.297c3.546 2.576 5.953 6.22 7.017 10.239l-72.018-33.428zm-42.226 54.392 20.468 9.498c1.022.474 2.095.699 3.152.699 2.83 0 5.539-1.609 6.808-4.345 1.744-3.757.111-8.217-3.646-9.96l-28.95-13.435c1.149-3.745 3.479-7.123 6.822-9.552l18.03-13.099 83.944 38.964-9.65 29.701-43.037-19.97c-3.758-1.744-8.217-.11-9.96 3.646-1.744 3.757-.111 8.216 3.646 9.96l43.987 20.411c-3.387 4.961-9.036 8.065-15.28 8.065h-46.44c-8.05 0-15.13-5.144-17.618-12.8zm-5.953 379.568c-.468-1.903-.632-3.878-.476-5.872l2.069-26.178 112.071-36.414 2.429 30.74z"/></g></svg>