<svg id="Capa_1" enable-background="new 0 0 511.983 511.983" height="512" viewBox="0 0 511.983 511.983" width="512" xmlns="http://www.w3.org/2000/svg"><g><g><path d="m17.191 205.585c18.071 71.478 73.986 178.068 176.814 195.624s107.532-103.627 218.196-126.654c101.725-21.167 125.393-162.141 11.286-226.974-165.528-94.051-450.045-15.044-406.296 158.004z" fill="#f9f6f9"/><path d="m211.589 401.207c3.623.617 7.118 1.067 10.506 1.341-8.509.783-17.811.411-28.082-1.341-102.828-17.556-158.747-124.145-176.822-195.622-31.656-125.203 108.547-201.175 251.179-197.992-136.297 3.153-263.947 77.939-233.594 197.992 18.075 71.477 73.984 178.066 176.813 195.622z" fill="#dfeaef"/><circle cx="180.614" cy="169.368" fill="#f1d333" r="98.738"/><path d="m199.177 266.351c-6.012 1.155-12.22 1.753-18.564 1.753-54.528 0-98.737-44.198-98.737-98.736 0-54.528 44.208-98.737 98.737-98.737 6.345 0 12.552.597 18.564 1.753-45.657 8.675-80.182 48.8-80.182 96.984 0 48.193 34.525 88.308 80.182 96.983z" fill="#e7a52e"/><path d="m193.688 314.729c101.873-39.255 203.747 39.255 305.62 0v178.431c-101.873 39.255-203.747-39.255-305.62 0 0-59.477 0-118.954 0-178.431z" fill="#da4a54"/><path d="m193.688 371.717c101.873-39.255 203.747 39.255 305.62 0v64.455c-101.873 39.255-203.747-39.255-305.62 0 0-59.477 0-4.978 0-64.455z" fill="#f9f6f9"/><ellipse cx="237.156" cy="168.497" fill="#f9ef63" rx="16.117" ry="33.212"/><g fill="#dfeaef"><circle cx="308.463" cy="76.189" r="17.094"/><circle cx="149.932" cy="314.531" r="17.094"/><circle cx="417.378" cy="204.639" r="19.536"/></g></g><g><path d="m286.852 169.382c0-58.58-47.658-106.238-106.238-106.238-58.579 0-106.237 47.658-106.237 106.238s47.658 106.238 106.237 106.238c58.58 0 106.238-47.659 106.238-106.238zm-197.475 0c0-50.309 40.929-91.238 91.237-91.238s91.238 40.929 91.238 91.238-40.93 91.238-91.238 91.238-91.237-40.93-91.237-91.238z"/><path d="m506.808 314.743c0-2.472-1.218-4.785-3.256-6.184-2.039-1.399-4.634-1.703-6.94-.815-46.608 17.96-92.789 10.341-141.409 1.034 18.122-13.75 37.029-22.397 58.527-26.87 22.795-4.745 43.178-15.575 58.944-31.32 14.955-14.936 25.562-33.987 30.672-55.096 5.665-23.399 4.372-48.138-3.74-71.541-8.674-25.024-25.074-47.811-47.427-65.897-3.223-2.607-7.943-2.106-10.549 1.113-2.604 3.22-2.106 7.942 1.113 10.548 20.173 16.321 34.935 36.774 42.689 59.148 7.169 20.68 8.321 42.5 3.335 63.098-9.42 38.908-38.614 67.043-78.094 75.26-27.847 5.793-51.669 17.877-74.683 37.874-47.396-8.962-96.165-16.171-145 2.648-2.895 1.115-4.804 3.897-4.804 6.999v77.263c-40.553-9.303-76.354-33.843-106.522-73.064-24.693-32.102-44.814-74.085-55.202-115.185-16.761-66.292 18.375-109.697 50.801-134.437 40.069-30.569 99.543-50.147 163.173-53.716 66.463-3.729 130.738 9.874 180.961 38.299 3.604 2.041 8.182.772 10.222-2.833s.771-8.181-2.833-10.221c-52.694-29.823-119.887-44.109-189.19-40.221-66.551 3.732-129.035 24.423-171.43 56.767-24.328 18.56-41.677 40.314-51.566 64.656-10.743 26.448-12.318 55.175-4.68 85.383 10.872 43.012 31.959 86.988 57.855 120.654 33.187 43.144 73.001 69.778 118.412 79.268v85.819c0 2.472 1.218 4.785 3.256 6.184 2.038 1.398 4.634 1.703 6.94.815 48.931-18.855 97.39-9.519 148.694.366 29.415 5.667 59.399 11.445 89.649 11.444 22.325 0 44.797-3.148 67.276-11.811 2.895-1.115 4.804-3.897 4.804-6.999v-178.43zm-161.728 7.365c47.838 9.216 97.199 18.727 146.729 3.193v41.195c-47.302 16.476-94.264 7.432-143.886-2.128-47.841-9.217-97.208-18.723-146.734-3.186v-41.202c47.303-16.484 94.263-7.434 143.891 2.128zm2.837 163.702c-29.414-5.667-59.399-11.445-89.649-11.445-18.948 0-38.004 2.269-57.079 8.251v-41.179c15.913-5.534 32.726-8.491 51.231-9.004 4.141-.115 7.404-3.564 7.289-7.705-.114-4.141-3.552-7.405-7.705-7.29-18.181.503-34.905 3.192-50.812 8.188v-48.655c47.303-16.484 94.266-7.437 143.893 2.125 47.836 9.217 97.198 18.727 146.724 3.197v48.656c-47.303 16.476-94.259 7.429-143.88-2.13-21.315-4.106-43.356-8.352-65.227-10.314-4.114-.36-7.77 2.674-8.14 6.8-.37 4.125 2.674 7.77 6.8 8.14 21.116 1.896 42.779 6.068 63.729 10.104 29.411 5.666 59.396 11.441 89.645 11.441 18.947 0 37.998-2.281 57.072-8.261v41.208c-47.304 16.482-94.265 7.433-143.891-2.127z"/><path d="m308.464 100.797c13.562 0 24.595-11.033 24.595-24.594s-11.033-24.594-24.595-24.594-24.594 11.033-24.594 24.594 11.032 24.594 24.594 24.594zm0-34.188c5.291 0 9.595 4.304 9.595 9.594s-4.304 9.594-9.595 9.594c-5.29 0-9.594-4.304-9.594-9.594s4.304-9.594 9.594-9.594z"/><path d="m125.338 314.545c0 13.562 11.033 24.594 24.595 24.594s24.594-11.033 24.594-24.594-11.032-24.594-24.594-24.594-24.595 11.033-24.595 24.594zm34.188 0c0 5.29-4.304 9.594-9.594 9.594-5.291 0-9.595-4.304-9.595-9.594s4.304-9.594 9.595-9.594c5.29 0 9.594 4.304 9.594 9.594z"/><path d="m390.343 204.654c0 14.908 12.128 27.036 27.036 27.036s27.036-12.128 27.036-27.036-12.128-27.036-27.036-27.036-27.036 12.128-27.036 27.036zm27.036-12.036c6.637 0 12.036 5.399 12.036 12.036s-5.399 12.036-12.036 12.036-12.036-5.399-12.036-12.036 5.399-12.036 12.036-12.036z"/><circle cx="89.022" cy="273.516" r="7.5"/><circle cx="328.487" cy="211.49" r="7.5"/><circle cx="406.462" cy="125.535" r="7.5"/><circle cx="231.782" cy="45.439" r="7.5"/></g></g></svg>