<svg id="_x33_0" enable-background="new 0 0 64 64" height="512" viewBox="0 0 64 64" width="512" xmlns="http://www.w3.org/2000/svg" xmlns:xlink="http://www.w3.org/1999/xlink"><linearGradient id="SVGID_1_" gradientUnits="userSpaceOnUse" x1="32" x2="32" y1="63" y2="1"><stop offset="0" stop-color="#9f2fff"/><stop offset="1" stop-color="#0bb1d3"/></linearGradient><path d="m41 16c0-.552.448-1 1-1s1 .448 1 1-.448 1-1 1-1-.448-1-1zm7 1c.552 0 1-.448 1-1s-.448-1-1-1-1 .448-1 1 .448 1 1 1zm-5.105 1.553-1.789.895.105.211c.722 1.444 2.174 2.341 3.789 2.341s3.067-.897 3.789-2.342l.105-.211-1.789-.895-.105.212c-.381.762-1.147 1.236-2 1.236s-1.619-.474-2-1.236zm20.105 19.511v6.936c0 3.309-2.691 6-6 6v12h-53c-1.654 0-3-1.346-3-3v-22c0-1.654 1.346-3 3-3h5v-9.026c-1.207-.913-2-2.347-2-3.974 0-1.13.391-2.162 1.026-3h-1.026c-1.103 0-2-.897-2-2v-14c0-1.103.897-2 2-2h22c1.103 0 2 .897 2 2v14c0 1.103-.897 2-2 2h-4v1.586c0 1.331-1.083 2.414-2.414 2.414-.635 0-1.257-.258-1.707-.706l-3.293-3.294h-1.612c.635.838 1.026 1.87 1.026 3 0 1.627-.793 3.061-2 3.974v9.026h12.466c.704-2.306 2.167-4.291 4.193-5.642 1.292-.861 2.788-1.433 4.324-1.652l4.209-.601.58-2.32c-.501-.314-.975-.679-1.405-1.105-1.04-1.031-1.753-2.299-2.107-3.681h-.26c-2.206 0-4-1.794-4-4 0-.901.31-1.724.815-2.393l-.496-1.489c-.212-.634-.319-1.294-.319-1.962 0-1.656.646-3.214 1.817-4.387l.183-.182v-4.326l1.504.879c.012.006 1.531.861 3.681.861 1.053 0 1.57-.305 2.286-.727.963-.567 2.161-1.273 4.718-1.273h.429c2.363 0 4.563 1.131 5.937 3.038 1.944.272 3.445 1.944 3.445 3.962 0 1.573-.536 4.13-.864 5.547.533.679.864 1.524.864 2.453 0 2.206-1.794 4-4 4h-.265c-.521 2.001-1.798 3.701-3.511 4.775l.583 2.331 4.209.601c1.537.22 3.032.791 4.324 1.652 2.918 1.945 4.66 5.199 4.66 8.705zm-13.646-9.004-2.741 2.741 2.619 1.572.631-4.24zm5.646-13.06c0-1.103-.897-2-2-2v4c1.103 0 2-.897 2-2zm-20-5.845c0 .452.073.899.216 1.329l.272.817c.467-.191.977-.301 1.512-.301h.308c.107-.34.233-.673.397-.988-.998-.658-1.786-1.608-2.248-2.725-.288.575-.457 1.206-.457 1.868zm2 7.845v-4c-1.103 0-2 .897-2 2s.897 2 2 2zm4-8c1.111 0 2.186-.325 3.109-.941 1.038-.693 2.247-1.059 3.496-1.059 1.143 0 2.16.308 3.034.891 1.108.739 1.881 1.85 2.199 3.109h.162c.484 0 .943.1 1.373.258.339-1.576.627-3.267.627-4.258 0-1.103-.897-2-2-2h-.534l-.421-.63c-.989-1.484-2.644-2.37-4.427-2.37h-.429c-2.011 0-2.833.484-3.703.997-.798.47-1.702 1.003-3.301 1.003-1.278 0-2.374-.241-3.185-.501v1.501c0 2.206 1.794 4 4 4zm-.224 12.261c1.132 1.122 2.63 1.738 4.222 1.738h.054c3.28-.028 5.948-2.72 5.948-5.999v-4.697c0-1.106-.55-2.134-1.471-2.748-.544-.364-1.177-.555-1.832-.555-.944 0-1.77.25-2.479.723-1.252.836-2.711 1.277-4.218 1.277-.503 0-.992-.062-1.459-.18-.363.644-.541 1.363-.541 2.18v4c0 1.612.631 3.126 1.776 4.261zm1.845 3.378-.514 2.055 2.893 2.892 2.893-2.893-.515-2.059c-.731.229-1.505.358-2.307.365-.024 0-.048 0-.073 0-.819 0-1.617-.125-2.377-.36zm-2.484 3.494.631 4.24 2.619-1.572-2.741-2.741zm-10.554 5.867h9.406l-.832-5.584-1.89.27c-1.243.178-2.453.64-3.499 1.336-1.463.977-2.56 2.364-3.185 3.978zm-22.583-18h11.414l3.879 3.879c.239.239.707.045.707-.293v-3.586h6.001l-.001-14h-22zm5 2c-1.654 0-3 1.346-3 3s1.346 3 3 3 3-1.346 3-3-1.346-3-3-3zm-1 16h2v-8.101c-.323.066-.658.101-1 .101s-.677-.035-1-.101zm-8 3v3h38v-3c0-.552-.449-1-1-1h-36c-.551 0-1 .448-1 1zm11 5c-.188 0-.373.014-.558.028l.558.558.558-.558c-.185-.014-.37-.028-.558-.028zm2.817.597-1.403 1.403 1.086 1.086 1.684-1.684c-.422-.317-.879-.589-1.367-.805zm-3.903 8.903 1.086 1.086 1.086-1.086-1.086-1.086zm-.329-2.5-1.085-1.086-1.086 1.086 1.086 1.086zm3.915 1.086 1.086-1.086-1.086-1.086-1.086 1.086zm-1.414-3.586-1.086-1.086-1.086 1.086 1.086 1.086zm-5.271-3.098 1.684 1.684 1.087-1.086-1.403-1.403c-.489.216-.945.488-1.368.805zm-2.218 2.781 1.403 1.403 1.086-1.086-1.684-1.684c-.317.422-.589.879-.805 1.367zm-.569 3.375.558-.558-.558-.558c-.014.185-.028.37-.028.558s.014.373.028.558zm.569 2.259c.216.488.488.944.805 1.367l1.684-1.684-1.086-1.086zm2.218 2.781c.422.317.879.589 1.367.805l1.404-1.403-1.086-1.086zm3.627 1.374c.185.014.37.028.558.028s.373-.014.558-.028l-.558-.558zm4.742-1.373-1.684-1.685-1.086 1.086 1.403 1.403c.488-.216.945-.488 1.367-.804zm2.219-2.782-1.403-1.403-1.086 1.086 1.684 1.684c.317-.422.589-.878.805-1.367zm.569-3.375-.558.558.558.558c.014-.185.028-.37.028-.558s-.014-.373-.028-.558zm-.569-2.259c-.216-.488-.488-.945-.805-1.367l-1.684 1.684 1.086 1.086zm19.597 13.817c.551 0 1-.448 1-1v-9c-.749 0-1.442-.22-2.042-.579-.207 1.454-1.448 2.579-2.958 2.579-1.654 0-3-1.346-3-3s1.346-3 3-3c.359 0 .7.074 1.019.19-.003-.064-.019-.125-.019-.19 0-2.206 1.794-4 4-4h-21.356c2.044 1.651 3.356 4.174 3.356 7 0 4.963-4.038 9-9 9s-9-4.037-9-9c0-2.826 1.312-5.349 3.356-7h-5.356v17c0 .552.449 1 1 1zm-4-12c-.551 0-1 .448-1 1s.449 1 1 1 1-.448 1-1-.449-1-1-1zm19 12v-6h-12v5c0 .352-.072.686-.184 1zm0-10h-12v2h12zm6-6v-2h-4c0 1.103-.897 2-2 2h-14c-1.103 0-2 .897-2 2s.897 2 2 2h16c2.206 0 4-1.794 4-4zm0-6.936c0-2.836-1.409-5.469-3.769-7.042-1.045-.696-2.255-1.158-3.498-1.336l-1.89-.27-1.075 7.211-5.768-3.461-3.632 2.179c.964.5 1.632 1.496 1.632 2.655v5h12v-6h2v4h4zm-30 11.936c0 1.654-1.346 3-3 3s-3-1.346-3-3 1.346-3 3-3 3 1.346 3 3zm-2 0c0-.552-.449-1-1-1s-1 .448-1 1 .449 1 1 1 1-.448 1-1zm0 7h2v-2h-2zm-4 0h2v-2h-2zm8 0h2v-2h-2zm4 0h2v-2h-2zm-10-52h-2v8h-2v-2h-2v2h-2v-4h-2v4h-2v-8h-2v8h-2v-6h-2v8h18z" fill="url(#SVGID_1_)"/></svg>