<svg id="Capa_1" enable-background="new 0 0 512 512" height="512" viewBox="0 0 512 512" width="512" xmlns="http://www.w3.org/2000/svg"><g><g><path d="m63.576 137.913c-30.97 0-56.076 25.106-56.076 56.076v66.7c0 62.631 50.773 113.404 113.404 113.404 40.77 0 76.511-21.517 96.496-53.813 8.252-13.335 22.918-21.342 38.6-21.342 15.682 0 30.348 8.007 38.6 21.342 19.985 32.296 55.726 53.813 96.496 53.813 62.631 0 113.404-50.773 113.404-113.404v-66.7c0-30.97-25.106-56.076-56.076-56.076z" fill="#b97ab7"/><path d="m133.63 373.378c-4.18.47-8.43.71-12.73.71-62.63 0-113.4-50.77-113.4-113.4v-66.7c0-30.97 25.11-56.08 56.08-56.08h25.41c-30.97 0-56.08 25.11-56.08 56.08v66.7c0 58.34 44.06 106.39 100.72 112.69z" fill="#845caf"/></g><g><path d="m50.385 339.696c-22.488-20.08-35.385-48.876-35.385-79.006v-66.7c0-26.787 21.793-48.58 48.58-48.58h333.5c4.143 0 7.5-3.358 7.5-7.5s-3.357-7.5-7.5-7.5h-333.5c-35.059 0-63.58 28.522-63.58 63.58v66.7c0 34.397 14.724 67.272 40.395 90.194 1.431 1.277 3.215 1.906 4.992 1.906 2.063 0 4.116-.846 5.598-2.505 2.758-3.089 2.49-7.83-.6-10.589z"/><path d="m448.42 130.41h-21.34c-4.143 0-7.5 3.358-7.5 7.5s3.357 7.5 7.5 7.5h21.34c26.787 0 48.58 21.793 48.58 48.58v66.7c0 28.292-11.014 54.887-31.012 74.885-20.011 20-46.606 31.015-74.889 31.015-36.966 0-70.656-18.787-90.119-50.251-4.696-7.605-11.358-13.932-19.271-18.298-7.837-4.318-16.727-6.601-25.709-6.601-18.247 0-35.481 9.539-44.978 24.895-9.323 15.071-22.39 27.675-37.782 36.447-15.868 9.033-33.967 13.808-52.34 13.808-16.66 0-32.595-3.753-47.359-11.154-3.704-1.857-8.21-.36-10.066 3.344-1.855 3.703-.358 8.209 3.344 10.065 16.871 8.457 35.066 12.745 54.082 12.745 20.97 0 41.635-5.454 59.763-15.774 17.568-10.011 32.478-24.393 43.116-41.591 6.784-10.97 19.131-17.785 32.221-17.785 6.457 0 12.845 1.639 18.466 4.736 5.653 3.12 10.409 7.63 13.756 13.049 22.217 35.92 60.677 57.365 102.877 57.365 32.288 0 62.649-12.574 85.494-35.407 22.832-22.833 35.406-53.195 35.406-85.493v-66.7c0-35.058-28.521-63.58-63.58-63.58z"/><path d="m192.39 237.963c-2.93-2.929-7.678-2.929-10.607 0-32.642 32.642-85.756 32.643-118.399 0-2.93-2.929-7.678-2.929-10.607 0s-2.929 7.678 0 10.606c5.956 5.956 12.542 11.053 19.604 15.238l-6.884 6.884c-2.93 2.929-2.93 7.677-.001 10.606 1.465 1.465 3.384 2.197 5.304 2.197 1.919 0 3.839-.732 5.303-2.197l10.537-10.537c9.028 3.524 18.591 5.708 28.444 6.443v14.935c0 4.142 3.357 7.5 7.5 7.5s7.5-3.358 7.5-7.5v-14.935c9.854-.735 19.417-2.918 28.445-6.443l10.537 10.537c1.464 1.465 3.384 2.197 5.303 2.197s3.839-.732 5.304-2.197c2.929-2.929 2.929-7.678-.001-10.606l-6.884-6.884c7.062-4.185 13.647-9.282 19.604-15.238 2.926-2.928 2.926-7.677-.002-10.606z"/><path d="m459.225 237.963c-2.93-2.929-7.678-2.929-10.607 0-15.813 15.813-36.837 24.521-59.2 24.521-22.362 0-43.387-8.708-59.199-24.521-2.93-2.929-7.678-2.929-10.607 0s-2.929 7.678 0 10.606c5.956 5.956 12.542 11.053 19.604 15.238l-6.884 6.884c-2.93 2.929-2.93 7.677-.001 10.606 1.465 1.465 3.384 2.197 5.304 2.197 1.919 0 3.839-.732 5.303-2.197l10.537-10.537c9.028 3.524 18.592 5.708 28.445 6.443v14.935c0 4.142 3.357 7.5 7.5 7.5s7.5-3.358 7.5-7.5v-14.935c9.853-.735 19.416-2.919 28.444-6.443l10.537 10.537c1.464 1.465 3.384 2.197 5.303 2.197s3.839-.732 5.304-2.197c2.929-2.929 2.929-7.678-.001-10.606l-6.884-6.884c7.062-4.185 13.647-9.282 19.604-15.238 2.926-2.928 2.926-7.677-.002-10.606z"/></g></g></svg>